<svg
 xmlns="http://www.w3.org/2000/svg"
 xmlns:xlink="http://www.w3.org/1999/xlink"
 width="28px" height="27px">
<defs>
<filter id="Filter_0">
    <feFlood flood-color="rgb(108, 14, 15)" flood-opacity="1" result="floodOut" />
    <feComposite operator="atop" in="floodOut" in2="SourceGraphic" result="compOut" />
    <feBlend mode="normal" in="compOut" in2="SourceGraphic" />
</filter>

</defs>
<g filter="url(#Filter_0)">
<path fill-rule="evenodd"  fill="rgb(255, 255, 255)"
 d="M20.067,2.109 L18.229,4.056 C16.705,3.136 14.709,2.649 13.081,2.649 C7.249,2.649 2.522,7.683 2.522,13.525 C2.522,19.587 7.407,24.346 13.081,24.346 C18.859,24.346 23.640,19.424 23.640,13.525 C23.640,13.364 23.534,12.335 23.534,12.225 C23.534,11.902 25.531,9.901 25.688,9.791 C26.004,11.036 26.161,12.281 26.161,13.525 C26.161,21.101 20.278,26.997 13.081,26.997 C8.458,26.997 3.047,24.510 0.683,18.017 C0.578,17.638 -0.000,15.419 -0.000,14.661 L-0.000,12.389 C0.893,4.327 7.144,-0.002 13.081,-0.002 C15.287,-0.002 17.809,0.593 20.067,2.109 ZM28.000,1.568 L12.292,19.748 L5.148,12.443 L7.302,10.170 L12.030,14.499 L25.058,1.568 L28.000,1.568 Z"/>
</g>
</svg>
